<svg width="435" height="200" fill="none" xmlns="http://www.w3.org/2000/svg"><g filter="url(#filter0_d)"><rect x="10" y="10" width="415" height="180" rx="3" fill="#fff"/></g><path d="M10 13a3 3 0 013-3h409a3 3 0 013 3v16H10V13z" fill="#FAFBFC"/><rect x="50" y="47" width="41" height="6" rx="3" fill="#E9EBF0"/><rect x="20" y="47" width="9" height="6" rx="3" fill="#E9EBF0"/><rect x="127" y="47" width="41" height="6" rx="3" fill="#B9BEC7"/><rect x="204" y="47" width="41" height="6" rx="3" fill="#E9EBF0"/><rect x="281" y="47" width="41" height="6" rx="3" fill="#E9EBF0"/><circle cx="366" cy="49" r="7.5" stroke="#B9BEC7" stroke-dasharray="2 2"/><circle cx="366" cy="89" r="7.5" stroke="#B9BEC7" stroke-dasharray="2 2"/><circle cx="366" cy="129" r="7.5" stroke="#B9BEC7" stroke-dasharray="2 2"/><circle cx="366" cy="169" r="7.5" stroke="#B9BEC7" stroke-dasharray="2 2"/><rect x="50" y="87" width="41" height="6" rx="3" fill="#E9EBF0"/><rect x="20" y="87" width="9" height="6" rx="3" fill="#E9EBF0"/><rect x="127" y="87" width="41" height="6" rx="3" fill="#5595EF"/><rect x="204" y="87" width="41" height="6" rx="3" fill="#E9EBF0"/><rect x="281" y="87" width="41" height="6" rx="3" fill="#E9EBF0"/><rect x="50" y="127" width="41" height="6" rx="3" fill="#E9EBF0"/><rect x="20" y="127" width="9" height="6" rx="3" fill="#E9EBF0"/><rect x="127" y="127" width="41" height="6" rx="3" fill="#FBCC43"/><rect x="204" y="127" width="41" height="6" rx="3" fill="#E9EBF0"/><rect x="281" y="127" width="41" height="6" rx="3" fill="#E9EBF0"/><rect x="50" y="167" width="41" height="6" rx="3" fill="#E9EBF0"/><rect x="20" y="167" width="9" height="6" rx="3" fill="#E9EBF0"/><rect x="127" y="167" width="41" height="6" rx="3" fill="#7DC560"/><rect x="204" y="167" width="41" height="6" rx="3" fill="#E9EBF0"/><rect x="281" y="167" width="41" height="6" rx="3" fill="#E9EBF0"/><path opacity=".6" fill="#E9EBF0" d="M10 69h415v1H10z"/><path fill="#E9EBF0" d="M10 29h415v1H10z"/><path opacity=".6" fill="#E9EBF0" d="M39 10h1v180h-1zM116 10h1v180h-1zM193 10h1v180h-1zM270 10h1v180h-1zM347 10h1v180h-1z"/><path opacity=".6" fill="#E9EBF0" d="M10 109h415v1H10zM10 149h415v1H10z"/><defs><filter id="filter0_d" x="0" y="0" width="435" height="200" filterUnits="userSpaceOnUse" color-interpolation-filters="sRGB"><feFlood flood-opacity="0" result="BackgroundImageFix"/><feColorMatrix in="SourceAlpha" values="0 0 0 0 0 0 0 0 0 0 0 0 0 0 0 0 0 0 127 0"/><feOffset/><feGaussianBlur stdDeviation="5"/><feColorMatrix values="0 0 0 0 0 0 0 0 0 0 0 0 0 0 0 0 0 0 0.08 0"/><feBlend in2="BackgroundImageFix" result="effect1_dropShadow"/><feBlend in="SourceGraphic" in2="effect1_dropShadow" result="shape"/></filter></defs></svg>